{"glyphs":{":":{"x_min":0,"x_max":259,"ha":259,"o":"m 222 440 l 197 327 l 104 327 l 129 440 z m 149 113 l 125 0 l 32 0 l 57 113 z"},"$":{"x_min":0,"x_max":488,"ha":488,"o":"m 371 656 q 407 655 449 646 q 491 637 526 624 l 503 522 l 457 522 q 451 567 426 590 q 402 612 362 615 l 309 372 q 359 337 384 312 q 408 287 421 259 q 434 231 434 195 q 434 146 410 107 q 386 67 339 42 q 292 18 230 14 l 210 -76 l 159 -76 l 179 14 q 100 17 11 44 l 34 152 l 81 152 q 88 105 114 80 q 140 56 188 53 l 245 313 q 199 346 179 365 q 158 385 146 404 q 133 424 127 442 q 122 460 122 481 q 122 528 147 567 q 171 606 217 630 q 262 654 320 656 l 340 747 l 391 747 z m 264 398 l 311 614 q 261 608 233 577 q 205 546 205 499 q 205 467 219 444 q 232 422 264 398 z m 290 286 l 239 56 q 295 62 323 93 q 351 123 351 176 q 351 210 338 235 q 324 259 290 286 z m 344 667 z"},"?":{"x_min":0,"x_max":407,"ha":407,"o":"m 141 203 l 144 220 q 148 242 157 260 q 167 278 185 302 q 204 326 239 361 q 279 403 297 427 q 315 450 326 472 q 337 495 342 516 q 347 537 347 561 q 347 596 328 616 q 310 635 278 635 q 242 635 216 612 q 189 588 176 543 l 113 543 l 130 624 q 192 653 229 664 q 265 674 299 674 q 346 674 378 659 q 411 644 426 617 q 442 591 442 560 q 442 536 435 513 q 428 491 412 468 q 396 444 368 415 q 340 386 294 343 q 265 315 250 297 q 234 278 226 261 q 217 244 211 215 l 208 203 z m 204 113 l 179 0 l 86 0 l 111 113 z"},"<":{"x_min":0,"x_max":528,"ha":528,"o":"m 64 251 l 79 320 l 527 504 l 510 426 l 139 281 l 445 136 l 431 67 z"},"'":{"x_min":0,"x_max":234,"ha":234,"o":"m 275 699 l 191 466 l 139 466 l 173 699 z"},"=":{"x_min":0,"x_max":528,"ha":528,"o":"m 88 354 l 103 420 l 508 420 l 493 354 z m 43 151 l 58 217 l 463 217 l 449 151 z"},"a":{"x_min":0,"x_max":526,"ha":526,"o":"m 407 443 l 452 475 l 483 467 l 409 136 q 402 106 399 91 q 397 75 397 64 q 397 44 408 35 q 419 26 451 24 l 447 0 l 307 0 l 338 123 l 332 125 q 285 56 243 24 q 201 -7 154 -7 q 100 -7 71 33 q 41 74 41 147 q 41 194 52 241 q 62 288 84 330 q 106 373 136 405 q 167 437 206 456 q 246 475 293 475 q 323 475 351 468 q 378 461 407 443 z m 364 297 q 369 317 370 332 q 372 347 372 364 q 372 402 355 419 q 339 437 302 437 q 281 437 263 430 q 244 423 225 408 q 206 393 189 368 q 171 343 157 307 q 143 271 135 231 q 127 190 127 151 q 127 101 141 75 q 155 50 188 50 q 203 50 219 57 q 236 64 256 82 q 276 101 301 136 q 324 169 338 201 q 351 233 360 276 z"},"L":{"x_min":0,"x_max":523,"ha":523,"o":"m 26 24 q 44 27 54 33 q 63 40 69 52 q 76 63 81 80 q 86 97 97 146 l 180 521 q 185 544 188 565 q 191 585 191 600 q 191 623 179 632 q 167 641 143 643 l 148 667 l 344 667 l 338 643 q 320 639 312 634 q 304 629 297 619 q 291 609 284 589 q 277 568 267 521 l 163 45 l 283 45 q 315 45 334 51 q 353 58 370 74 q 387 91 403 120 q 419 149 436 192 l 483 192 l 434 0 l 21 0 z"},"3":{"x_min":0,"x_max":528,"ha":528,"o":"m 129 538 l 149 631 q 204 654 250 664 q 295 674 345 674 q 377 674 405 667 q 434 660 455 645 q 476 629 489 606 q 501 582 501 549 q 501 504 483 469 q 466 435 427 405 q 387 376 319 350 l 319 344 q 379 330 412 293 q 444 256 444 202 q 444 162 426 121 q 409 80 377 51 q 345 22 298 7 q 252 -8 189 -8 q 145 -8 93 2 q 42 12 9 27 l 32 130 l 88 130 q 91 81 118 57 q 145 34 196 34 q 245 34 280 55 q 314 77 334 118 q 353 160 353 212 q 353 265 319 291 q 285 317 217 317 l 168 317 l 178 360 q 237 364 282 382 q 328 399 356 426 q 384 453 396 483 q 408 514 408 544 q 408 584 384 607 q 360 629 319 629 q 272 629 242 606 q 211 583 190 538 z"},";":{"x_min":0,"x_max":259,"ha":259,"o":"m 222 440 l 197 327 l 104 327 l 129 440 z m 150 113 q 150 96 146 71 q 143 47 136 24 q 129 2 120 -15 q 110 -32 95 -50 q 81 -68 56 -90 q 31 -111 -9 -136 l -31 -106 q -8 -86 5 -73 q 18 -59 26 -45 q 35 -31 41 -12 q 48 7 56 42 q 63 77 67 113 z"},"J":{"x_min":0,"x_max":299,"ha":299,"o":"m 147 21 q 130 -55 104 -100 q 79 -146 37 -167 q -4 -189 -64 -189 q -77 -189 -90 -188 q -103 -187 -110 -184 l -98 -137 q -90 -140 -80 -140 q -71 -141 -61 -141 q -32 -141 -11 -128 q 9 -115 26 -82 q 43 -50 56 7 l 170 521 q 175 543 178 564 q 181 585 181 600 q 181 623 169 632 q 157 641 133 643 l 138 667 l 333 667 l 328 643 q 310 639 302 634 q 293 629 287 619 q 280 609 274 589 q 267 568 257 521 z"},"V":{"x_min":0,"x_max":575,"ha":575,"o":"m 300 667 l 295 643 q 273 640 261 630 q 250 620 245 601 q 240 583 240 552 q 240 542 240 532 l 255 151 l 255 112 l 260 112 l 471 493 q 490 527 499 551 q 508 575 508 594 q 508 613 497 626 q 485 638 459 643 l 465 667 l 665 667 l 659 643 q 646 641 634 633 q 622 625 607 606 q 592 587 561 533 l 249 -8 l 184 -8 l 151 537 q 149 568 144 591 q 139 614 128 626 q 117 639 93 643 l 98 667 z"},"\"":{"x_min":0,"x_max":389,"ha":389,"o":"m 269 699 l 190 471 l 139 471 l 176 699 z m 430 699 l 352 471 l 300 471 l 337 699 z"},"7":{"x_min":0,"x_max":528,"ha":528,"o":"m 563 643 l 169 -3 l 97 -3 l 103 24 l 458 578 l 459 585 l 257 585 q 233 585 218 580 q 203 574 192 561 q 181 547 166 508 l 121 508 l 160 667 l 568 667 z"},"S":{"x_min":0,"x_max":481,"ha":481,"o":"m 78 152 q 78 93 105 64 q 132 35 190 35 q 235 35 268 51 q 300 68 316 98 q 333 129 333 171 q 333 201 323 223 q 312 246 291 267 q 270 288 229 314 q 193 339 169 363 q 146 386 131 416 q 117 445 117 481 q 117 539 145 583 q 173 626 224 650 q 274 674 341 674 q 386 674 424 668 q 462 662 509 647 l 481 522 l 435 522 q 433 563 422 587 q 411 611 391 621 q 371 631 338 631 q 297 631 267 615 q 236 598 220 570 q 204 541 204 506 q 204 480 212 460 q 221 440 240 421 q 260 402 297 376 q 345 343 370 317 q 395 291 407 262 q 419 232 419 194 q 419 135 390 89 q 362 42 310 17 q 258 -8 191 -8 q 146 -8 95 -1 q 44 6 1 18 l 31 152 z"},"}":{"x_min":0,"x_max":375,"ha":375,"o":"m 138 699 q 151 699 171 697 q 187 696 202 693 q 217 689 233 683 q 249 676 261 666 q 273 656 281 643 q 289 630 293 612 q 297 595 297 573 q 297 544 289 503 l 260 370 q 254 342 254 323 q 254 289 272 273 q 290 258 334 258 l 326 218 q 273 218 243 187 q 213 156 200 94 l 170 -42 q 155 -108 127 -144 q 100 -180 55 -195 q 11 -211 -59 -211 l -74 -211 l -65 -171 q -12 -171 15 -158 q 42 -144 58 -114 q 74 -84 86 -29 l 108 70 q 119 117 133 147 q 148 178 173 200 q 199 222 239 237 l 241 246 q 210 261 195 287 q 179 313 179 354 q 179 387 189 435 l 211 535 q 218 566 218 588 q 218 616 207 631 q 195 646 174 653 q 152 659 113 659 l 122 698 z"},"Z":{"x_min":0,"x_max":512,"ha":512,"o":"m 116 45 l 272 45 q 293 45 307 48 q 321 51 332 57 q 342 62 352 71 q 361 80 370 92 q 380 104 391 125 q 403 146 417 177 l 463 177 l 426 0 l -7 0 l -2 24 l 441 622 l 291 622 q 271 622 258 619 q 246 617 237 613 q 228 608 220 602 q 213 596 203 584 q 193 572 181 553 q 169 534 153 501 l 106 501 l 143 667 l 565 667 l 560 643 z"},"x":{"x_min":0,"x_max":449,"ha":449,"o":"m 462 443 q 367 342 264 243 l 309 136 q 327 93 338 73 q 349 53 357 44 q 366 35 375 31 q 384 26 403 24 l 397 0 l 276 0 l 208 196 q 196 186 177 168 q 158 149 140 129 q 122 108 114 95 q 107 83 105 73 q 103 64 103 54 q 103 42 110 34 q 117 27 134 24 l 128 0 l -11 0 l -20 24 q 87 139 190 235 l 144 344 q 130 377 121 395 q 112 412 104 422 q 96 431 86 436 q 75 441 56 443 l 61 467 l 183 467 l 248 283 q 271 305 293 328 q 314 352 323 365 q 332 379 335 390 q 339 400 339 412 q 339 439 308 443 l 313 467 l 452 467 z"},")":{"x_min":0,"x_max":372,"ha":372,"o":"m 124 701 q 193 701 236 676 q 279 651 299 603 q 318 556 318 484 q 318 434 309 374 q 297 289 273 185 q 250 89 229 28 q 205 -41 177 -86 q 149 -131 115 -158 q 80 -185 37 -198 q -11 -212 -78 -212 l -69 -172 q -26 -172 2 -163 q 29 -153 51 -134 q 77 -111 101 -69 q 128 -20 152 57 q 176 134 198 235 q 215 313 225 374 q 238 457 238 511 q 238 569 224 602 q 209 634 183 647 q 157 661 115 661 z"},"&":{"x_min":0,"x_max":659,"ha":659,"o":"m 390 67 q 336 29 285 11 q 233 -8 178 -8 q 130 -8 95 10 q 60 29 42 60 q 25 92 25 130 q 25 176 46 215 q 68 253 110 288 q 152 323 223 361 q 208 392 200 423 q 193 454 193 487 q 193 538 220 582 q 247 625 293 650 q 340 674 397 674 q 460 674 496 647 q 532 619 532 570 q 532 527 509 493 q 487 459 445 429 q 404 399 315 355 q 331 324 368 260 q 405 197 431 159 q 478 200 502 240 q 526 279 526 311 q 526 344 489 347 l 494 371 l 611 371 l 623 347 q 602 288 558 230 q 515 172 455 122 q 472 93 485 78 q 499 62 510 56 q 522 50 538 50 q 558 50 574 56 q 591 62 612 77 l 631 43 q 590 14 560 3 q 530 -8 498 -8 q 465 -8 440 9 q 416 25 390 67 z m 297 393 q 355 422 389 448 q 423 473 439 500 q 454 526 454 559 q 454 595 437 614 q 420 633 387 633 q 353 633 327 615 q 301 597 287 565 q 273 534 273 496 q 273 466 279 441 q 286 417 297 393 z m 242 321 q 196 293 169 270 q 143 246 127 217 q 112 188 112 153 q 112 117 126 93 q 140 69 163 59 q 186 48 215 48 q 240 48 263 54 q 286 61 308 71 q 330 82 365 105 q 345 135 307 202 q 269 269 242 321 z"},"_":{"x_min":0,"x_max":371,"ha":371,"o":"m -71 -118 l -71 -61 l 300 -61 l 300 -118 z"},"v":{"x_min":0,"x_max":460,"ha":460,"o":"m 456 467 l 469 442 q 451 399 442 378 q 432 357 416 325 q 399 294 379 259 q 359 225 333 185 q 307 146 274 98 q 241 51 197 -8 l 136 -8 l 90 361 q 86 396 81 412 q 76 427 66 434 q 56 441 35 443 l 41 467 l 166 467 l 203 79 q 287 194 328 273 q 368 353 368 402 q 368 425 358 433 q 349 441 325 443 l 330 467 z"},"O":{"x_min":0,"x_max":622,"ha":622,"o":"m 409 674 q 469 674 513 651 q 558 627 581 580 q 605 532 605 461 q 605 386 579 291 q 553 197 504 128 q 455 59 392 25 q 329 -8 260 -8 q 192 -8 147 18 q 103 44 82 92 q 61 139 61 203 q 61 265 78 342 q 96 418 127 480 q 158 542 201 586 q 244 629 296 652 q 349 674 409 674 z m 512 482 q 512 631 403 631 q 377 631 354 623 q 326 612 301 591 q 273 567 250 530 q 221 486 200 430 q 178 371 165 303 q 152 238 152 186 q 152 109 180 72 q 208 35 262 35 q 306 35 346 62 q 395 94 434 166 q 476 242 499 353 q 512 417 512 482 z"},"(":{"x_min":0,"x_max":372,"ha":372,"o":"m 252 -212 q 183 -212 140 -188 q 97 -163 78 -115 q 59 -67 59 4 q 59 55 67 117 q 79 196 101 293 q 124 390 145 454 q 170 527 199 573 q 228 619 262 646 q 296 673 339 686 q 387 701 454 701 l 445 661 q 402 661 375 651 q 347 641 325 622 q 299 599 276 559 q 250 510 225 432 q 203 365 182 268 q 164 188 153 125 q 139 36 139 -23 q 139 -80 153 -113 q 167 -146 193 -159 q 219 -172 261 -172 z"},"C":{"x_min":0,"x_max":540,"ha":540,"o":"m 578 649 l 549 517 l 502 517 q 498 577 476 604 q 454 630 404 630 q 363 630 327 606 q 291 582 259 536 q 227 491 203 429 q 179 368 166 304 q 153 241 153 189 q 153 110 179 73 q 206 35 261 35 q 298 35 325 46 q 353 57 376 83 q 400 109 424 156 l 471 156 l 441 18 q 391 4 345 -2 q 298 -8 250 -8 q 189 -8 146 17 q 104 42 83 90 q 61 138 61 205 q 61 240 66 273 q 72 314 84 362 q 101 422 125 472 q 151 524 185 564 q 217 601 254 626 q 288 649 328 662 q 367 674 412 674 q 456 674 494 669 q 532 664 578 649 z"},"W":{"x_min":0,"x_max":896,"ha":896,"o":"m 513 -6 l 513 351 q 513 438 518 532 l 513 532 l 251 -6 l 175 -6 l 152 537 q 150 577 143 599 q 137 620 125 630 q 114 640 94 643 l 99 667 l 303 667 l 297 643 q 275 641 263 630 q 250 618 246 598 q 241 579 241 542 l 241 526 q 241 517 241 508 l 246 317 q 246 296 246 252 l 246 213 l 246 111 l 250 111 l 521 667 l 594 667 l 594 341 q 594 283 593 228 l 590 111 l 595 111 l 792 493 q 804 515 816 544 q 829 573 829 594 q 829 613 817 626 q 806 638 780 643 l 785 667 l 985 667 l 979 643 q 957 640 937 618 q 916 596 882 533 l 588 -6 z"},"A":{"x_min":0,"x_max":588,"ha":588,"o":"m 331 0 l 336 24 q 358 26 371 37 q 383 47 388 66 q 394 85 394 117 q 394 136 392 158 l 389 221 l 174 221 l 147 173 q 128 140 119 115 q 110 91 110 73 q 110 32 160 24 l 154 0 l -45 0 l -40 24 q -25 26 -11 36 q 2 46 17 66 q 32 86 60 133 l 373 674 l 446 674 l 481 130 q 484 91 490 70 q 497 48 508 37 q 519 27 540 24 l 534 0 z m 196 264 l 387 264 l 378 421 q 377 453 376 501 q 375 550 375 571 l 370 571 z"},"f":{"x_min":0,"x_max":292,"ha":292,"o":"m 124 -8 q 107 -86 78 -132 q 49 -178 8 -198 q -34 -218 -93 -218 q -114 -218 -131 -213 l -120 -170 q -108 -174 -86 -174 q -60 -174 -44 -167 q -27 -161 -13 -145 q 0 -130 13 -100 q 25 -71 37 -22 l 136 417 l 77 417 l 83 442 q 106 445 116 449 q 126 453 132 460 q 138 467 143 480 q 148 493 157 525 q 183 613 237 657 q 291 701 375 701 q 422 701 457 693 l 438 610 l 395 610 q 388 638 377 650 q 366 663 345 663 q 317 663 297 647 q 278 632 264 602 q 250 571 238 520 l 226 467 l 338 467 l 327 417 l 215 417 z"},"Q":{"x_min":0,"x_max":622,"ha":622,"o":"m 330 0 q 341 -35 351 -58 q 360 -82 369 -96 q 378 -110 387 -117 q 396 -125 405 -127 q 414 -129 425 -129 q 444 -129 463 -119 q 482 -108 505 -82 l 531 -109 q 492 -151 458 -169 q 424 -187 389 -187 q 348 -187 323 -168 q 297 -150 278 -111 q 259 -71 242 -7 q 153 -2 107 51 q 61 105 61 203 q 61 265 78 342 q 96 418 127 480 q 158 542 201 586 q 244 629 296 652 q 349 674 409 674 q 469 674 513 651 q 558 627 581 580 q 605 532 605 461 q 605 393 583 309 q 562 224 524 159 q 487 95 437 55 q 388 16 330 0 z m 513 482 q 513 555 486 593 q 459 631 403 631 q 377 631 354 623 q 326 612 301 591 q 273 567 250 530 q 221 486 200 430 q 178 371 165 303 q 152 238 152 186 q 152 109 180 72 q 208 35 262 35 q 310 35 353 66 q 396 98 431 161 q 466 223 490 313 q 513 403 513 482 z"},"w":{"x_min":0,"x_max":728,"ha":728,"o":"m 478 81 q 554 189 594 270 q 634 351 634 402 q 634 425 624 433 q 614 441 591 443 l 596 467 l 722 467 l 735 442 q 718 399 708 375 q 697 352 681 319 q 664 286 646 253 q 627 221 602 181 q 577 142 545 96 q 514 50 472 -8 l 414 -8 l 394 196 q 391 220 388 259 q 386 297 385 318 l 379 319 q 353 254 308 174 q 262 95 195 -8 l 130 -8 l 93 360 q 90 388 85 406 q 81 423 71 432 q 61 441 37 443 l 42 467 l 170 467 l 200 82 q 269 194 299 252 q 330 311 344 354 q 359 396 367 443 l 372 467 l 442 467 z"},"-":{"x_min":0,"x_max":319,"ha":319,"o":"m 263 219 l 50 219 l 66 295 l 279 295 z"},"E":{"x_min":0,"x_max":568,"ha":568,"o":"m 598 667 l 564 517 l 517 517 q 516 552 512 572 q 508 591 503 601 q 498 610 492 615 q 485 620 476 622 q 466 624 449 624 l 290 624 l 234 368 l 327 368 q 349 368 363 374 q 377 379 390 394 q 402 408 417 438 l 461 438 l 417 250 l 376 250 q 376 277 374 290 q 372 303 369 309 q 366 315 361 318 q 356 322 348 323 q 340 325 322 325 l 225 325 l 162 43 l 307 43 q 328 43 343 46 q 358 49 370 57 q 382 65 394 77 q 405 90 417 109 q 429 129 449 169 l 497 169 l 454 0 l 21 0 l 26 24 q 44 27 54 33 q 63 40 69 52 q 76 63 81 80 q 86 97 97 146 l 180 521 q 191 570 191 600 q 191 623 179 632 q 167 641 143 643 l 148 667 z"},"s":{"x_min":0,"x_max":382,"ha":382,"o":"m 322 353 q 317 397 297 417 q 277 437 236 437 q 213 437 194 428 q 176 419 165 403 q 154 387 154 365 q 154 347 162 332 q 169 317 186 301 q 204 285 235 264 q 282 232 301 202 q 320 172 320 133 q 320 87 298 55 q 276 23 238 8 q 200 -8 152 -8 q 109 -8 72 -1 q 35 5 0 15 l 22 120 l 61 120 q 64 75 86 53 q 108 31 151 31 q 194 31 219 52 q 243 74 243 110 q 243 131 236 147 q 229 164 213 179 q 197 194 168 214 q 138 235 119 253 q 100 272 89 294 q 79 316 79 343 q 79 384 99 414 q 119 443 156 459 q 192 475 242 475 q 322 475 384 454 l 361 353 z"},">":{"x_min":0,"x_max":528,"ha":528,"o":"m 486 320 l 472 251 l 23 67 l 41 145 l 412 291 l 105 435 l 120 504 z"},"l":{"x_min":0,"x_max":267,"ha":267,"o":"m 247 698 l 275 698 l 148 122 q 143 99 142 87 q 140 75 140 66 q 140 52 145 43 q 150 35 160 31 q 170 26 194 24 l 190 0 l 38 0 l 164 561 q 168 582 170 593 q 172 604 173 613 q 174 623 174 630 q 174 645 169 653 q 164 660 154 664 q 144 667 118 668 l 124 694 z"},"8":{"x_min":0,"x_max":528,"ha":528,"o":"m 391 346 l 391 340 q 469 303 469 216 q 469 197 464 171 q 458 136 442 107 q 424 72 394 46 q 363 21 319 7 q 276 -8 223 -8 q 165 -8 122 10 q 80 28 57 62 q 34 96 34 142 q 34 181 49 220 q 63 260 96 291 q 129 322 181 344 l 181 350 q 147 375 131 406 q 115 437 115 475 q 115 493 119 514 q 125 545 138 570 q 155 600 184 624 q 214 647 256 661 q 297 674 346 674 q 411 674 453 655 q 495 636 513 605 q 532 574 532 534 q 532 495 517 458 q 501 422 469 392 q 436 362 391 346 z m 199 459 q 199 440 203 424 q 208 407 219 394 q 229 381 248 373 q 266 366 295 366 q 338 366 371 387 q 404 408 424 449 q 444 491 444 539 q 444 586 420 610 q 396 633 348 633 q 299 633 266 609 q 232 585 216 543 q 199 500 199 459 z m 123 133 q 123 84 149 59 q 176 34 228 34 q 268 34 297 51 q 327 67 344 95 q 362 123 372 160 q 381 196 381 229 q 381 277 357 301 q 333 325 283 325 q 243 325 212 309 q 182 292 162 264 q 143 236 133 200 q 123 165 123 133 z"},"\\":{"x_min":0,"x_max":466,"ha":466,"o":"m 204 699 l 335 -210 l 264 -210 l 133 699 z"},"e":{"x_min":0,"x_max":457,"ha":457,"o":"m 397 97 q 361 58 328 35 q 295 12 262 2 q 229 -8 188 -8 q 150 -8 122 5 q 94 17 76 39 q 58 61 49 91 q 40 121 40 156 q 40 208 59 268 q 78 328 116 375 q 154 423 207 449 q 260 475 320 475 q 379 475 409 451 q 438 427 438 376 q 438 293 361 252 q 283 210 129 210 q 124 181 124 147 q 124 96 144 73 q 164 49 209 49 q 254 49 291 69 q 327 88 367 129 z m 138 252 q 183 252 217 257 q 250 262 275 270 q 299 278 315 289 q 332 300 341 314 q 351 327 354 342 q 358 357 358 373 q 358 403 344 420 q 330 437 303 437 q 269 437 236 412 q 203 387 177 345 q 152 304 138 252 z"},"b":{"x_min":0,"x_max":521,"ha":521,"o":"m 114 24 l 69 -8 l 38 0 l 164 558 q 167 570 171 593 q 175 616 175 630 q 175 651 163 659 q 150 667 118 668 l 124 694 l 248 698 l 276 698 l 190 356 l 196 354 q 244 418 285 446 q 327 475 368 475 q 421 475 451 434 q 480 394 480 320 q 480 267 466 214 q 452 161 426 118 q 400 75 369 47 q 337 20 302 6 q 268 -8 229 -8 q 164 -8 114 24 z m 157 170 q 152 148 151 133 q 149 117 149 104 q 149 65 166 48 q 183 31 222 31 q 248 31 269 41 q 290 50 308 69 q 327 88 343 115 q 358 142 370 176 q 381 210 387 247 q 394 284 394 316 q 394 367 379 392 q 365 417 333 417 q 310 417 287 403 q 264 388 236 353 q 208 319 191 283 q 173 247 161 190 z"},"%":{"x_min":0,"x_max":858,"ha":858,"o":""},"m":{"x_min":0,"x_max":799,"ha":799,"o":"m 468 371 l 468 364 q 468 361 468 357 q 510 417 552 446 q 594 475 639 475 q 686 475 710 448 q 734 422 734 371 q 734 340 724 296 l 683 122 q 675 87 675 66 q 675 52 680 43 q 685 35 695 31 q 705 26 729 24 l 724 0 l 571 0 l 632 248 q 639 275 644 302 q 649 330 649 353 q 649 388 637 403 q 625 417 599 417 q 580 417 556 402 q 532 386 506 354 q 480 322 464 290 q 448 259 438 213 l 394 0 l 309 0 l 365 248 q 375 293 379 315 q 383 337 383 353 q 383 388 370 403 q 358 417 332 417 q 312 417 288 402 q 265 386 238 353 q 212 319 196 287 q 180 255 171 211 l 127 0 l 42 0 l 117 333 q 119 345 123 367 q 127 389 127 403 q 127 417 123 425 q 119 432 109 436 q 99 439 75 441 l 81 467 l 192 471 l 220 471 l 188 345 l 193 343 q 238 410 283 442 q 327 475 373 475 q 419 475 444 448 q 468 421 468 371 z"},"#":{"x_min":0,"x_max":619,"ha":619,"o":"m 499 407 l 447 262 l 543 262 l 543 207 l 427 207 l 354 0 l 291 0 l 364 207 l 210 207 l 138 0 l 74 0 l 146 207 l 55 207 l 55 262 l 166 262 l 218 407 l 123 407 l 123 463 l 238 463 l 310 667 l 374 667 l 301 463 l 455 463 l 528 667 l 591 667 l 518 463 l 610 463 l 610 407 z m 282 407 l 230 262 l 384 262 l 436 407 z"},",":{"x_min":0,"x_max":199,"ha":199,"o":"m 126 113 q 126 96 123 71 q 120 47 113 24 q 105 2 96 -15 q 87 -32 72 -50 q 57 -68 32 -90 q 7 -111 -32 -136 l -55 -106 q -31 -86 -18 -73 q -5 -59 3 -45 q 11 -31 18 -12 q 24 7 32 42 q 40 77 44 113 z"},"n":{"x_min":0,"x_max":535,"ha":535,"o":"m 460 0 l 307 0 l 369 248 q 375 272 380 301 q 386 330 386 353 q 386 387 374 402 q 362 417 336 417 q 316 417 292 402 q 269 386 243 354 q 217 323 199 290 q 181 258 171 211 l 127 0 l 42 0 l 117 333 q 119 345 123 367 q 127 389 127 403 q 127 417 123 425 q 119 432 109 436 q 99 439 75 441 l 81 467 l 192 471 l 220 471 l 187 344 l 193 342 q 241 410 285 442 q 330 475 374 475 q 421 475 446 448 q 470 422 470 371 q 470 354 467 333 q 464 312 460 296 l 419 122 q 411 87 411 66 q 411 52 416 43 q 420 35 431 31 q 441 26 464 24 z"},"h":{"x_min":0,"x_max":530,"ha":530,"o":"m 456 0 l 302 0 l 364 248 q 371 275 376 302 q 381 330 381 353 q 381 388 369 403 q 357 417 330 417 q 310 417 285 401 q 261 384 234 350 q 208 316 192 285 q 176 254 167 211 l 122 0 l 38 0 l 163 558 q 168 583 171 594 q 173 604 174 614 q 175 623 175 630 q 175 651 162 659 q 150 667 118 668 l 124 694 l 247 698 l 275 698 l 191 360 l 197 358 q 243 419 285 447 q 326 475 369 475 q 417 475 441 448 q 465 422 465 371 q 465 340 456 296 l 415 122 q 410 101 408 88 q 406 76 406 66 q 406 51 411 43 q 416 35 427 31 q 437 26 460 24 z"},"z":{"x_min":0,"x_max":450,"ha":450,"o":"m 389 137 l 359 0 l 6 0 l -3 24 l 264 332 q 320 396 347 424 l 344 427 l 229 427 q 204 427 192 424 q 181 420 169 412 q 157 403 144 386 q 130 370 114 338 l 70 338 l 99 467 l 446 467 l 456 442 l 105 43 l 108 40 l 218 40 q 248 40 263 43 q 279 46 291 55 q 302 63 315 81 q 327 99 346 137 z"},"B":{"x_min":0,"x_max":596,"ha":596,"o":"m 437 341 q 482 323 507 290 q 531 256 531 214 q 531 164 513 124 q 495 84 455 54 q 416 24 364 12 q 313 0 238 0 l 21 0 l 26 24 q 44 27 54 33 q 63 40 69 52 q 76 63 81 80 q 86 97 97 146 l 180 521 q 191 570 191 599 q 191 623 180 632 q 168 641 143 643 l 148 667 l 390 667 q 463 667 508 651 q 552 636 573 606 q 593 576 593 531 q 593 467 554 420 q 515 372 438 347 z m 302 368 q 353 368 384 375 q 415 381 435 395 q 454 409 469 427 q 485 445 494 470 q 503 495 503 529 q 503 550 496 568 q 488 586 470 599 q 453 612 429 618 q 406 624 368 624 q 325 624 289 622 l 233 368 z m 163 45 q 201 43 234 43 q 308 43 348 62 q 388 80 413 122 q 438 164 438 223 q 438 254 426 276 q 413 298 386 312 q 359 325 312 325 l 223 325 z"},"K":{"x_min":0,"x_max":603,"ha":603,"o":"m 232 365 l 249 365 q 269 365 286 372 q 303 379 325 397 q 348 415 397 463 q 446 512 467 537 q 487 562 497 580 q 506 599 506 614 q 506 626 497 634 q 487 641 469 643 l 474 667 l 684 667 l 678 643 q 659 640 634 622 q 609 605 559 555 l 369 370 l 473 120 q 486 88 494 73 q 502 59 512 49 q 521 39 533 32 q 544 26 561 24 l 556 0 l 367 0 l 373 24 q 399 26 399 47 q 399 54 398 61 q 396 67 392 81 q 388 94 381 112 l 317 268 q 306 295 298 307 q 290 318 280 322 q 271 327 251 327 l 224 327 l 184 142 q 177 113 175 96 q 173 79 173 66 q 173 44 184 35 q 195 26 221 24 l 216 0 l 21 0 l 26 24 q 44 27 54 33 q 63 40 69 52 q 76 63 81 80 q 86 97 97 146 l 180 521 q 185 544 188 565 q 191 585 191 600 q 191 623 179 632 q 167 641 143 643 l 148 667 l 344 667 l 338 643 q 320 639 312 634 q 304 629 297 619 q 291 609 284 589 q 277 568 267 521 z"},"R":{"x_min":0,"x_max":590,"ha":590,"o":"m 395 302 q 418 285 433 260 q 447 236 456 192 l 467 136 q 471 118 475 103 q 479 88 485 74 q 490 60 497 52 q 503 43 511 38 q 519 33 528 30 q 538 26 552 24 l 547 0 l 412 0 q 396 43 384 104 l 363 207 q 357 234 350 252 q 342 271 332 281 q 321 291 307 294 q 293 297 273 297 l 218 297 l 184 142 q 179 123 177 112 q 176 101 175 88 q 173 76 173 66 q 173 51 178 42 q 183 34 193 30 q 203 26 227 24 l 221 0 l 21 0 l 26 24 q 44 27 54 33 q 63 40 69 52 q 76 63 81 80 q 86 97 97 146 l 180 521 q 191 570 191 599 q 191 623 180 632 q 168 641 143 643 l 148 667 l 366 667 q 417 667 450 660 q 483 654 506 642 q 529 630 545 611 q 561 591 568 567 q 576 543 576 516 q 576 472 562 438 q 547 405 522 379 q 498 354 465 336 q 432 319 395 308 z m 285 339 q 338 339 373 349 q 408 360 432 381 q 455 403 470 438 q 485 473 485 514 q 485 535 481 552 q 478 568 471 579 q 465 589 455 598 q 445 606 431 612 q 416 618 397 621 q 377 624 344 624 q 318 624 290 622 l 227 339 z"},"T":{"x_min":0,"x_max":574,"ha":574,"o":"m 348 0 l 142 0 l 147 24 q 167 26 176 31 q 185 37 192 47 q 199 57 207 79 q 214 101 224 146 l 328 624 l 266 624 q 236 624 218 615 q 200 606 182 582 q 164 558 138 502 l 91 502 l 127 667 l 637 667 l 599 495 l 552 495 q 552 542 550 566 q 547 589 541 602 q 534 614 524 619 q 514 624 488 624 l 416 624 l 310 142 q 306 123 304 112 q 302 101 301 88 q 300 76 300 66 q 300 51 305 42 q 310 34 319 30 q 329 26 353 24 z"},"P":{"x_min":0,"x_max":555,"ha":555,"o":"m 364 667 q 422 667 459 657 q 497 648 521 630 q 545 611 557 582 q 569 553 569 515 q 569 442 534 388 q 500 334 440 309 q 381 284 298 284 q 248 284 215 286 l 184 142 q 179 122 177 111 q 176 101 175 88 q 173 76 173 66 q 173 51 178 42 q 183 34 193 30 q 203 26 227 24 l 221 0 l 21 0 l 26 24 q 44 27 54 33 q 63 40 69 52 q 76 63 81 80 q 86 97 97 146 l 180 521 q 191 570 191 599 q 191 623 180 632 q 168 641 143 643 l 148 667 z m 274 326 q 333 326 369 338 q 406 351 429 376 q 452 402 465 437 q 478 472 478 514 q 478 556 463 580 q 448 604 421 614 q 395 624 353 624 q 323 624 290 622 l 223 326 z"},"|":{"x_min":0,"x_max":315,"ha":315,"o":"m 98 -210 l 22 -210 l 223 699 l 298 699 z"},"t":{"x_min":0,"x_max":345,"ha":345,"o":"m 330 90 q 290 42 250 17 q 211 -8 167 -8 q 116 -8 90 19 q 65 45 65 95 q 65 126 74 164 l 134 417 l 62 417 l 67 442 q 96 446 113 455 q 129 464 141 479 q 152 494 162 518 q 172 542 187 587 l 254 587 l 227 467 l 382 467 l 371 417 l 216 417 l 169 228 q 149 149 149 110 q 149 80 162 65 q 175 49 200 49 q 223 49 247 67 q 272 84 301 119 z"},"M":{"x_min":0,"x_max":792,"ha":792,"o":"m 662 667 l 816 667 l 811 643 q 792 639 784 634 q 776 629 769 619 q 763 609 756 589 q 750 568 739 521 l 656 142 q 649 113 647 96 q 646 80 646 66 q 646 44 656 35 q 667 26 693 24 l 688 0 l 493 0 l 498 24 q 517 27 526 33 q 535 40 542 52 q 548 63 553 80 q 559 97 569 146 l 634 440 q 647 498 667 564 l 660 564 q 646 538 632 514 q 618 490 590 444 l 368 78 l 315 78 l 268 444 l 255 575 l 245 575 q 227 453 208 368 l 161 155 q 153 118 150 100 q 148 82 148 66 q 148 44 159 35 q 170 26 196 24 l 190 0 l 20 0 l 25 24 q 43 27 53 33 q 62 40 68 52 q 75 63 80 80 q 85 97 96 146 l 179 521 q 184 542 187 562 q 190 581 190 600 q 190 623 178 632 q 167 641 142 643 l 147 667 l 322 667 l 377 193 z"},"g":{"x_min":0,"x_max":522,"ha":522,"o":"m 50 -42 q 41 -53 34 -64 q 28 -75 25 -85 q 22 -96 22 -110 q 22 -146 49 -163 q 75 -180 128 -180 q 177 -180 209 -163 q 241 -146 264 -111 q 286 -75 303 -23 q 320 29 337 116 l 331 117 q 283 52 243 22 q 202 -7 155 -7 q 102 -7 73 33 q 43 73 43 147 q 43 201 57 254 q 71 307 97 349 q 122 392 154 420 q 186 448 222 461 q 257 475 296 475 q 327 475 354 468 q 381 460 409 443 l 454 475 l 485 467 l 435 238 q 429 214 423 183 l 411 119 q 388 4 374 -40 q 357 -90 335 -124 q 314 -154 285 -175 q 256 -196 219 -207 q 181 -218 129 -218 q -55 -218 -55 -111 q -55 -83 -39 -61 q -22 -39 15 -14 z m 190 50 q 215 50 240 67 q 264 84 292 122 q 320 159 336 192 q 352 226 363 276 q 374 327 374 364 q 374 402 357 419 q 341 437 304 437 q 283 437 265 430 q 246 423 227 408 q 208 393 191 368 q 173 343 159 307 q 145 271 137 231 q 129 190 129 151 q 129 101 144 75 q 159 50 190 50 z"},"j":{"x_min":0,"x_max":266,"ha":266,"o":"m 275 658 l 252 563 l 166 563 l 188 658 z m 128 -8 q 112 -83 85 -128 q 59 -173 16 -196 q -27 -218 -87 -218 q -111 -218 -128 -213 l -117 -170 q -109 -173 -100 -174 q -90 -174 -80 -174 q -57 -174 -40 -167 q -24 -160 -10 -144 q 4 -127 16 -98 q 28 -69 39 -22 l 118 329 q 124 356 126 374 q 129 391 129 402 q 129 417 125 424 q 121 432 111 436 q 101 440 77 441 l 83 467 l 202 471 l 229 471 z"},"i":{"x_min":0,"x_max":271,"ha":271,"o":"m 273 658 l 251 563 l 165 563 l 187 658 z m 153 122 q 147 97 146 86 q 145 74 145 66 q 145 52 149 43 q 154 35 165 31 q 175 26 198 24 l 194 0 l 42 0 l 116 329 q 123 357 125 374 q 127 391 127 402 q 127 417 123 424 q 119 432 109 436 q 100 440 76 441 l 81 467 l 200 471 l 229 471 z"},"y":{"x_min":0,"x_max":460,"ha":460,"o":"m 90 360 q 85 397 81 412 q 77 426 67 434 q 57 441 35 443 l 41 467 l 166 467 l 203 79 q 368 304 368 402 q 368 425 358 433 q 349 441 325 443 l 330 467 l 456 467 l 469 442 q 443 375 403 302 q 363 229 304 143 q 246 56 175 -37 q 120 -109 83 -146 q 54 -173 30 -188 q 6 -202 -17 -208 q -40 -214 -65 -214 q -78 -214 -95 -212 q -111 -209 -123 -205 l -102 -113 l -64 -113 q -63 -130 -56 -140 q -49 -149 -35 -149 q -19 -149 -8 -146 q 3 -143 16 -136 q 28 -128 46 -112 q 64 -96 86 -70 q 109 -43 137 -5 z"},"@":{"x_min":0,"x_max":885,"ha":885,"o":"m 542 206 l 536 207 q 495 145 458 117 q 421 88 383 88 q 351 88 328 105 q 305 121 294 151 q 282 182 282 222 q 282 262 292 302 q 301 343 320 379 q 339 416 365 444 q 391 471 426 488 q 461 505 501 505 q 530 505 554 498 q 578 492 599 479 l 637 505 l 668 498 l 614 253 q 609 231 607 217 q 604 203 604 190 q 604 134 651 134 q 686 134 713 162 q 740 190 754 240 q 769 289 769 347 q 769 438 740 501 q 710 564 651 596 q 593 628 509 628 q 406 628 329 582 q 251 536 209 450 q 167 365 167 256 q 167 161 200 97 q 232 33 294 1 q 356 -31 443 -31 q 485 -31 520 -25 q 555 -19 594 -6 l 606 -50 q 575 -62 531 -69 q 487 -76 440 -76 q 318 -76 239 -36 q 160 4 122 79 q 84 154 84 263 q 84 347 114 422 q 143 498 200 555 q 256 612 334 643 q 412 674 504 674 q 593 674 659 650 q 725 625 764 581 q 804 538 822 483 q 840 429 840 365 q 840 284 815 221 q 791 157 746 123 q 702 88 643 88 q 622 88 604 94 q 585 99 571 110 q 557 121 549 139 q 541 157 541 183 q 541 195 542 206 z m 559 352 q 563 370 564 382 q 565 395 565 408 q 565 439 552 453 q 539 466 509 466 q 492 466 476 461 q 461 455 445 442 q 429 429 414 408 q 400 388 388 358 q 376 328 370 293 q 363 258 363 226 q 363 184 375 164 q 386 143 412 143 q 432 143 452 158 q 473 173 495 202 q 518 231 532 262 q 547 292 555 334 z"},".":{"x_min":0,"x_max":199,"ha":199,"o":"m 120 113 l 95 0 l 2 0 l 27 113 z"},"p":{"x_min":0,"x_max":527,"ha":527,"o":"m 104 -86 q 100 -110 98 -123 q 97 -135 97 -144 q 97 -158 102 -167 q 107 -175 117 -179 q 127 -184 151 -186 l 147 -210 l -4 -210 l 120 333 q 129 374 129 403 q 129 417 125 425 q 121 432 111 436 q 101 439 77 441 l 83 467 l 193 471 l 221 471 l 188 344 l 194 342 q 285 475 374 475 q 427 475 457 434 q 486 394 486 320 q 486 267 472 214 q 458 161 432 118 q 406 75 375 47 q 343 20 308 6 q 273 -8 235 -8 q 170 -8 127 21 z m 163 170 q 158 144 157 130 q 156 117 156 104 q 156 65 172 48 q 188 31 229 31 q 253 31 274 41 q 295 50 314 69 q 333 87 348 114 q 363 140 375 175 q 387 210 393 247 q 399 284 399 316 q 399 367 385 392 q 371 417 339 417 q 314 417 290 401 q 266 384 237 347 q 208 310 192 273 q 176 237 167 190 z"},"X":{"x_min":0,"x_max":545,"ha":545,"o":"m 312 667 l 307 643 q 286 639 274 628 q 261 617 261 596 q 261 565 277 518 l 318 399 l 422 532 q 430 541 437 551 q 444 561 449 571 q 455 580 458 587 q 460 594 462 599 q 463 604 463 609 q 463 623 455 632 q 447 641 428 643 l 434 667 l 616 667 l 610 643 q 596 638 583 628 q 570 619 552 599 q 534 580 486 522 l 340 348 l 412 150 q 428 105 438 82 q 448 58 456 46 q 462 38 469 33 q 476 29 492 24 l 487 0 l 290 0 l 295 24 q 317 27 329 39 q 341 51 341 70 q 341 99 330 134 l 279 283 l 167 144 q 143 113 131 93 q 120 73 120 59 q 120 47 123 41 q 126 34 134 30 q 142 25 155 24 l 149 0 l -32 0 l -27 24 q -18 27 -10 31 q -2 36 7 43 q 16 51 31 68 q 46 85 66 108 l 256 334 l 184 535 q 173 565 165 585 q 157 605 149 617 q 141 628 132 634 q 123 640 110 643 l 115 667 z"},"*":{"x_min":0,"x_max":415,"ha":415,"o":"m 420 448 l 385 396 l 282 483 l 263 331 l 195 331 l 242 483 l 113 394 l 84 450 l 234 515 l 116 580 l 152 634 l 256 546 l 274 699 l 342 699 l 296 546 l 423 635 l 453 579 l 304 515 z"},"Y":{"x_min":0,"x_max":548,"ha":548,"o":"m 287 667 l 281 643 q 261 641 250 631 q 239 621 239 600 q 239 570 253 521 l 305 337 l 425 498 q 452 534 464 554 q 476 574 480 590 q 484 602 484 612 q 484 626 475 633 q 466 641 448 643 l 454 667 l 637 667 l 631 643 q 620 640 611 635 q 603 631 592 621 q 581 610 562 588 q 543 565 514 527 l 324 280 l 293 142 q 289 123 287 112 q 286 101 284 88 q 283 76 283 66 q 283 51 288 42 q 293 34 303 30 q 312 26 336 24 l 331 0 l 125 0 l 131 24 q 150 27 160 32 q 169 37 176 47 q 183 57 190 79 q 197 101 207 146 l 236 280 l 165 527 q 149 583 140 604 q 130 624 120 632 q 109 640 92 643 l 98 667 z"},"c":{"x_min":0,"x_max":433,"ha":433,"o":"m 359 350 q 358 387 353 403 q 348 420 336 428 q 325 437 304 437 q 254 437 215 397 q 176 358 151 286 q 126 214 126 147 q 126 127 130 109 q 133 91 142 78 q 151 64 166 57 q 181 49 204 49 q 249 49 281 66 q 313 83 350 119 l 379 89 q 333 39 287 15 q 240 -8 187 -8 q 116 -8 79 34 q 42 76 42 156 q 42 208 62 271 q 82 333 119 380 q 157 428 207 451 q 257 475 314 475 q 354 475 383 470 q 412 466 434 460 l 410 350 z"},"!":{"x_min":0,"x_max":280,"ha":280,"o":"m 288 667 l 156 203 l 107 203 l 188 667 z m 160 113 l 135 0 l 42 0 l 67 113 z"},"/":{"x_min":0,"x_max":466,"ha":466,"o":"m 537 699 l 12 -210 l -66 -210 l 459 699 z"},"[":{"x_min":0,"x_max":339,"ha":339,"o":"m 221 -210 l 14 -210 l 214 699 l 420 699 l 412 659 l 288 659 l 105 -171 l 229 -171 z"},"6":{"x_min":0,"x_max":528,"ha":528,"o":"m 187 352 q 225 375 261 386 q 297 398 335 398 q 376 398 409 380 q 443 362 463 326 q 482 289 482 236 q 482 202 474 166 q 465 130 447 98 q 428 67 399 43 q 371 20 332 6 q 293 -8 244 -8 q 200 -8 168 8 q 135 24 114 52 q 92 80 82 118 q 71 155 71 199 q 71 238 77 277 q 85 331 101 373 q 121 428 157 479 q 194 530 247 571 q 299 612 362 638 q 426 665 497 674 l 515 647 l 510 624 q 393 615 309 546 q 225 476 182 354 z m 149 175 q 149 104 177 69 q 204 34 257 34 q 295 34 327 59 q 359 84 377 129 q 395 175 395 232 q 395 349 298 349 q 282 349 266 345 q 250 342 234 335 q 217 329 203 319 q 187 309 179 301 q 172 294 167 285 q 163 276 160 265 q 157 252 153 221 q 149 196 149 175 z"},"r":{"x_min":0,"x_max":407,"ha":407,"o":"m 194 471 l 224 471 l 189 351 l 195 349 q 242 413 286 444 q 330 475 377 475 q 413 475 437 469 l 413 360 l 363 360 q 359 385 351 398 q 342 412 325 412 q 306 412 281 392 q 256 373 230 338 q 204 304 191 275 q 178 247 171 211 l 127 0 l 42 0 l 117 333 q 127 379 127 403 q 127 417 123 425 q 118 432 108 436 q 99 439 75 441 l 81 467 z"},"2":{"x_min":0,"x_max":528,"ha":528,"o":"m 284 78 q 302 78 312 80 q 322 82 328 86 q 334 89 341 97 q 348 104 354 114 q 359 124 368 143 l 414 143 l 377 0 l -5 0 l 0 23 q 28 74 73 130 q 119 186 197 260 q 263 322 288 348 q 332 393 355 425 q 379 458 389 486 q 398 515 398 544 q 398 585 375 607 q 352 629 309 629 q 269 629 237 605 q 205 582 186 538 l 123 538 l 144 631 q 199 653 246 664 q 293 674 340 674 q 388 674 423 658 q 458 643 475 615 q 493 586 493 553 q 493 521 485 495 q 478 469 461 443 q 440 412 398 368 q 360 330 272 251 q 150 142 103 78 z"},"{":{"x_min":0,"x_max":375,"ha":375,"o":"m 242 -211 q 160 -211 121 -180 q 83 -149 83 -85 q 83 -57 91 -15 l 120 118 q 126 146 126 165 q 126 199 108 214 q 89 229 46 229 l 54 270 q 105 270 136 299 q 166 329 181 394 l 210 529 q 220 570 233 598 q 246 626 265 646 q 284 665 309 676 q 334 688 366 693 q 398 698 439 698 l 454 698 l 445 659 q 395 659 368 646 q 341 634 323 604 q 306 575 293 517 l 271 417 q 261 372 247 341 q 232 310 207 288 q 181 265 141 250 l 139 241 q 170 226 186 200 q 201 174 201 133 q 201 100 191 53 l 169 -48 q 162 -79 162 -101 q 162 -129 174 -145 q 186 -160 207 -166 q 229 -171 267 -171 l 258 -211 z"},"9":{"x_min":0,"x_max":528,"ha":528,"o":"m 386 315 q 351 292 315 280 q 280 269 242 269 q 197 269 163 289 q 128 309 110 345 q 92 382 92 432 q 92 464 100 500 q 109 537 127 568 q 146 599 174 623 q 203 647 241 661 q 280 674 326 674 q 370 674 403 658 q 436 643 458 615 q 480 586 491 548 q 502 509 502 463 q 502 421 493 369 q 486 328 469 283 q 453 240 430 201 q 407 163 377 130 q 348 98 314 73 q 281 48 244 31 q 207 13 167 3 q 127 -6 86 -8 l 68 19 l 73 43 q 157 50 219 82 q 280 113 322 170 q 364 227 391 313 z m 276 318 q 304 318 333 329 q 359 338 380 354 q 396 366 403 377 q 412 391 417 417 q 421 444 421 487 q 421 559 394 596 q 367 633 315 633 q 277 633 245 607 q 213 581 195 534 q 177 487 177 432 q 177 374 200 346 q 224 318 276 318 z"}," ":{"x_min":0,"x_max":220,"ha":220,"o":""},"I":{"x_min":0,"x_max":320,"ha":320,"o":"m 184 142 q 177 113 175 96 q 173 80 173 66 q 173 44 184 35 q 195 26 221 24 l 216 0 l 21 0 l 26 24 q 44 27 54 33 q 63 40 69 52 q 76 63 81 80 q 86 97 97 146 l 180 521 q 185 544 188 565 q 191 585 191 600 q 191 623 179 632 q 167 641 143 643 l 148 667 l 344 667 l 338 643 q 320 639 312 634 q 304 629 297 619 q 291 609 284 589 q 277 568 267 521 z"},"H":{"x_min":0,"x_max":669,"ha":669,"o":"m 533 142 q 526 113 524 96 q 522 80 522 66 q 522 44 533 35 q 544 26 570 24 l 565 0 l 370 0 l 375 24 q 394 27 403 33 q 412 40 418 52 q 425 63 430 80 q 436 97 446 146 l 486 327 l 224 327 l 184 142 q 180 124 177 113 q 175 101 174 90 q 173 79 173 66 q 173 45 183 36 q 193 26 221 24 l 216 0 l 21 0 l 26 24 q 44 27 54 33 q 63 40 69 52 q 76 63 81 80 q 86 97 97 146 l 180 521 q 185 542 188 564 q 191 587 191 600 q 191 623 179 632 q 167 641 143 643 l 148 667 l 344 667 l 338 643 q 320 639 312 634 q 304 629 297 619 q 291 609 284 589 q 277 568 267 521 l 234 372 l 496 372 l 529 521 q 534 542 537 564 q 540 587 540 600 q 540 623 528 632 q 517 641 492 643 l 498 667 l 693 667 l 688 643 q 671 639 664 635 q 657 632 652 626 q 646 620 641 609 q 636 598 630 577 q 624 556 616 521 z"},"4":{"x_min":0,"x_max":528,"ha":528,"o":"m 198 24 q 217 26 226 32 q 235 37 242 47 q 249 58 255 77 q 262 97 271 140 l 285 202 l 25 202 l 34 248 l 390 670 l 471 670 l 378 250 l 395 250 q 420 250 432 254 q 444 258 452 268 q 460 278 471 303 l 515 303 l 487 202 l 368 202 l 352 132 q 348 111 346 94 q 344 78 344 67 q 344 45 354 35 q 365 26 392 24 l 387 0 l 193 0 z m 112 250 l 296 250 l 322 371 q 343 467 369 562 l 362 562 l 114 256 z"},"~":{"x_min":0,"x_max":528,"ha":528,"o":"m 36 250 q 56 276 73 295 q 89 315 103 328 q 117 341 129 349 q 141 357 152 362 q 163 367 173 369 q 184 371 195 371 q 212 371 227 366 q 242 361 256 350 q 270 340 292 317 q 310 297 322 288 q 333 278 344 273 q 356 268 370 268 q 386 268 399 274 q 412 280 428 296 q 443 312 475 354 l 517 321 q 476 268 452 246 q 429 223 406 212 q 384 200 359 200 q 340 200 324 206 q 309 211 295 222 q 281 232 260 254 q 239 277 228 287 q 216 296 206 300 q 195 304 183 304 q 167 304 152 296 q 138 288 123 272 q 107 257 77 217 z"},"D":{"x_min":0,"x_max":646,"ha":646,"o":"m 333 667 q 407 667 453 655 q 499 644 539 615 q 579 585 599 537 q 619 488 619 422 q 619 356 604 296 q 588 236 560 185 q 532 135 492 97 q 453 60 416 40 q 378 20 333 10 q 287 0 226 0 l 21 0 l 26 24 q 44 27 54 33 q 63 40 69 52 q 76 63 81 80 q 86 97 97 146 l 180 521 q 185 544 188 565 q 191 585 191 600 q 191 623 179 632 q 167 641 143 643 l 148 667 z m 162 45 q 176 43 216 43 q 266 43 306 54 q 346 65 380 89 q 414 112 442 152 q 470 191 487 232 q 504 273 514 320 q 524 367 524 419 q 524 521 476 573 q 429 624 335 624 q 313 624 289 623 z"},"^":{"x_min":0,"x_max":528,"ha":528,"o":"m 408 330 l 348 607 l 168 330 l 93 330 l 324 674 l 395 674 l 477 330 z"},"0":{"x_min":0,"x_max":528,"ha":528,"o":"m 206 -8 q 160 -8 128 9 q 96 26 78 65 q 60 104 60 168 q 60 226 72 292 q 83 359 104 418 q 124 477 152 525 q 181 574 215 607 q 249 640 287 657 q 326 674 367 674 q 407 674 435 662 q 462 649 480 626 q 497 604 505 572 q 512 541 512 503 q 512 398 481 290 q 450 182 402 112 q 360 50 307 20 q 260 -8 206 -8 z m 145 138 q 145 98 151 76 q 158 54 172 44 q 187 34 211 34 q 248 34 282 68 q 317 103 347 172 q 378 241 403 348 q 428 456 428 534 q 428 585 412 609 q 397 633 363 633 q 342 633 321 622 q 296 609 273 579 q 244 542 219 482 q 198 429 180 360 q 167 311 158 263 q 145 192 145 138 z"},"F":{"x_min":0,"x_max":527,"ha":527,"o":"m 184 142 q 180 127 178 117 q 176 107 175 92 q 173 77 173 66 q 173 51 178 42 q 183 34 193 30 q 203 26 227 24 l 221 0 l 21 0 l 26 24 q 44 27 54 33 q 63 40 69 52 q 76 63 81 80 q 86 97 97 146 l 180 521 q 191 570 191 599 q 191 623 180 632 q 168 641 143 643 l 148 667 l 589 667 l 555 517 l 508 517 q 506 551 503 571 q 500 591 494 601 q 489 610 483 615 q 477 620 467 622 q 458 624 440 624 l 290 624 l 231 358 l 323 358 q 344 358 358 364 q 373 370 385 385 q 397 400 415 438 l 459 438 l 412 231 l 369 231 q 369 262 368 279 q 367 296 362 303 q 357 310 349 312 q 340 315 318 315 l 222 315 z"},"`":{"x_min":0,"x_max":271,"ha":271,"o":"m 211 704 l 276 544 l 242 522 l 127 680 l 132 704 z"},"k":{"x_min":0,"x_max":497,"ha":497,"o":"m 180 272 l 195 272 q 210 272 228 278 q 246 284 266 296 q 286 309 319 335 q 345 356 357 370 q 369 385 374 396 q 378 406 378 416 q 378 440 345 443 l 350 467 l 508 467 l 518 443 q 477 406 432 371 l 308 275 l 381 90 q 391 65 401 52 q 412 38 425 32 q 438 25 459 24 l 454 0 l 324 0 l 252 201 q 246 220 241 227 q 236 233 229 236 q 223 239 209 239 l 173 239 l 122 0 l 38 0 l 163 558 q 168 583 171 594 q 173 604 174 614 q 175 623 175 630 q 175 651 162 659 q 150 667 118 668 l 124 694 l 247 698 l 275 698 z"},"u":{"x_min":0,"x_max":535,"ha":535,"o":"m 75 467 l 229 467 l 167 218 q 160 191 155 164 q 149 137 149 114 q 149 80 161 64 q 173 49 199 49 q 220 49 244 66 q 269 82 296 116 q 323 151 339 182 q 355 212 364 255 l 408 467 l 493 467 l 418 133 q 416 120 412 99 q 408 77 408 63 q 408 43 419 34 q 431 26 462 24 l 457 0 l 317 0 l 348 123 l 342 125 q 294 57 250 25 q 206 -8 161 -8 q 114 -8 89 18 q 65 44 65 96 q 65 110 68 130 q 70 150 75 171 l 116 345 q 121 366 123 379 q 125 392 125 400 q 125 422 113 431 q 101 440 71 442 z"},"]":{"x_min":0,"x_max":339,"ha":339,"o":"m 130 -210 l -76 -210 l -67 -170 l 56 -170 l 238 659 l 114 659 l 123 699 l 330 699 z"},"U":{"x_min":0,"x_max":632,"ha":632,"o":"m 127 643 l 132 667 l 329 667 l 323 643 q 305 639 297 634 q 289 629 282 619 q 275 609 269 589 q 262 568 252 521 l 191 248 q 185 220 181 195 q 177 169 177 143 q 177 89 203 62 q 229 35 282 35 q 332 35 365 55 q 398 76 418 114 q 438 153 452 214 l 520 521 q 525 543 528 564 q 531 585 531 600 q 531 623 519 632 q 507 641 483 643 l 488 667 l 674 667 l 668 643 q 650 639 642 634 q 633 628 627 619 q 620 609 614 588 q 607 567 597 521 l 534 229 q 515 141 480 89 q 445 38 393 15 q 341 -8 266 -8 q 182 -8 137 32 q 92 73 92 151 q 92 179 97 214 q 103 250 113 294 l 164 521 q 170 547 173 568 q 175 588 175 600 q 175 622 164 632 q 153 641 127 643 z"},"o":{"x_min":0,"x_max":507,"ha":507,"o":"m 200 -8 q 124 -8 82 34 q 41 77 41 156 q 41 186 48 225 q 57 276 74 316 q 96 365 131 401 q 165 437 210 456 q 254 475 306 475 q 362 475 398 453 q 434 432 450 395 q 466 358 466 310 q 466 266 454 217 q 436 145 402 94 q 369 44 318 18 q 267 -8 200 -8 z m 126 135 q 126 82 148 56 q 170 30 215 30 q 263 30 300 73 q 337 116 359 194 q 380 271 380 330 q 380 382 360 409 q 339 436 296 436 q 245 436 207 393 q 169 351 148 271 q 126 192 126 135 z"},"N":{"x_min":0,"x_max":671,"ha":671,"o":"m 697 667 l 692 643 q 673 639 665 634 q 657 629 651 619 q 644 609 637 589 q 631 568 621 521 l 506 0 l 439 0 l 297 419 q 271 494 251 569 l 245 569 q 242 544 229 474 q 216 404 201 337 l 158 142 q 154 122 151 103 q 148 83 148 66 q 148 44 159 35 q 170 26 196 24 l 190 0 l 20 0 l 25 24 q 43 27 53 33 q 62 40 68 52 q 75 63 80 80 q 85 97 96 146 l 179 521 q 184 542 187 562 q 190 581 190 600 q 190 623 178 632 q 167 641 142 643 l 147 667 l 303 667 l 432 286 q 460 204 475 147 l 480 147 q 484 177 498 247 q 512 316 524 368 l 558 521 q 562 538 565 560 q 569 582 569 600 q 569 623 557 632 q 545 641 521 643 l 526 667 z"},"+":{"x_min":0,"x_max":528,"ha":528,"o":"m 305 253 l 264 67 l 190 67 l 231 253 l 65 253 l 80 319 l 246 319 l 286 504 l 359 504 l 319 319 l 487 319 l 472 253 z"},"G":{"x_min":0,"x_max":585,"ha":585,"o":"m 398 156 q 409 202 409 235 q 409 258 397 267 q 386 276 361 277 l 367 301 l 562 301 l 557 277 q 540 273 533 270 q 526 267 521 260 q 515 254 510 244 q 504 233 499 213 q 493 192 485 156 l 452 2 l 413 -8 l 388 30 q 353 14 333 7 q 313 0 292 -4 q 271 -8 248 -8 q 188 -8 146 18 q 104 43 82 90 q 61 137 61 202 q 61 254 72 309 q 84 371 104 424 q 124 476 150 517 q 175 558 207 589 q 235 617 268 636 q 301 655 338 665 q 375 674 415 674 q 461 674 500 669 q 539 663 584 648 l 555 517 l 508 517 q 504 560 493 584 q 482 609 462 620 q 441 631 408 631 q 367 631 332 610 q 297 588 265 546 q 233 504 207 440 q 181 376 167 310 q 153 243 153 189 q 153 110 179 73 q 206 35 260 35 q 280 35 301 39 q 322 44 340 55 q 358 66 373 85 q 387 104 393 133 z"},"q":{"x_min":0,"x_max":521,"ha":521,"o":"m 325 113 q 281 51 240 22 q 198 -7 154 -7 q 101 -7 71 33 q 42 74 42 147 q 42 194 52 241 q 63 288 85 330 q 106 373 137 405 q 167 437 207 456 q 247 475 293 475 q 324 475 351 468 q 378 461 408 443 l 453 475 l 484 467 l 359 -88 q 351 -125 351 -144 q 351 -159 355 -167 q 360 -175 371 -179 q 381 -184 405 -186 l 400 -210 l 248 -210 l 332 110 z m 365 297 q 369 319 371 334 q 372 350 372 364 q 372 402 356 419 q 340 437 302 437 q 282 437 263 430 q 245 423 226 408 q 207 393 189 368 q 172 343 158 307 q 144 271 136 231 q 128 190 128 151 q 128 101 142 75 q 156 50 188 50 q 204 50 220 57 q 236 64 256 82 q 276 101 302 136 q 325 169 338 201 q 352 233 360 276 z"},"d":{"x_min":0,"x_max":524,"ha":524,"o":"m 425 561 q 429 577 432 596 q 435 616 435 630 q 435 645 429 653 q 424 660 414 664 q 404 667 378 668 l 384 694 l 506 698 l 535 698 l 409 136 q 402 105 399 90 q 397 75 397 64 q 397 44 408 35 q 419 26 451 24 l 447 0 l 307 0 l 338 123 l 332 125 q 285 56 243 24 q 201 -7 154 -7 q 100 -7 71 33 q 41 74 41 147 q 41 194 52 241 q 62 288 84 330 q 106 373 136 405 q 167 437 206 456 q 246 475 293 475 q 323 475 348 469 q 373 463 399 448 z m 364 297 q 372 333 372 364 q 372 402 355 419 q 339 437 302 437 q 281 437 263 430 q 244 423 225 408 q 206 393 189 368 q 171 343 157 307 q 143 271 135 231 q 127 190 127 151 q 127 101 141 75 q 155 50 188 50 q 203 50 219 57 q 236 64 256 82 q 276 101 301 136 q 324 169 338 201 q 351 233 360 276 z"},"1":{"x_min":0,"x_max":528,"ha":528,"o":"m 297 141 q 289 101 289 84 q 289 64 299 55 q 309 45 333 41 q 356 37 406 36 l 399 0 l 54 0 l 62 36 q 103 38 125 41 q 146 44 160 50 q 173 56 182 64 q 190 73 196 86 q 203 100 208 127 l 287 481 q 291 502 293 514 q 295 526 295 534 q 295 549 288 555 q 281 561 271 561 q 258 561 232 549 q 206 536 155 506 l 136 545 l 383 674 l 417 674 l 403 617 q 395 586 386 544 z"},"5":{"x_min":0,"x_max":528,"ha":528,"o":"m 205 375 q 249 392 302 392 q 351 392 387 373 q 423 354 442 318 q 461 283 461 236 q 461 172 432 112 q 403 51 347 22 q 291 -8 209 -8 q 167 -8 119 1 q 71 11 33 27 l 56 130 l 112 130 q 115 34 212 34 q 265 34 300 61 q 334 88 352 135 q 370 182 370 229 q 370 284 343 313 q 317 342 267 342 q 243 342 224 339 q 205 337 178 329 l 137 360 l 205 667 l 448 667 q 465 667 472 669 q 480 672 485 678 q 491 685 497 699 l 536 699 l 505 585 l 251 585 z"}}}
